<svg height="512pt" fill="#fff" viewBox="0 -55 512.003 512" width="512pt" xmlns="http://www.w3.org/2000/svg"><path fill="#fff" d="m194.84375 153.269531-14.457031 82.292969 75.613281-38.816406 75.613281 38.816406-14.457031-82.292969 61.640625-58.640625-85.121094-12.070312-37.675781-74.515625-37.675781 74.515625-85.121094 12.070312zm0 0"/><path d="m430.425781 151.9375c.394531-4.78125.515625-9.671875.679688-14.546875 14.25-6.195313 40.625-20.210937 52.535156-45.75 4.992187-10.710937 16.269531-36.578125-6.914063-91.640625-38.777343 11.96875-63.703124 27.96875-75.648437 53.601562-14.214844 30.484376-3.558594 65.242188.332031 75.902344-.808594 89.6875-51.542968 192.5-145.410156 192.5-.019531 0-.039062.003906-.058594.003906-90.238281 0-144.5625-98.539062-145.410156-192.503906 3.890625-10.660156 14.542969-45.417968.332031-75.90625-16.640625-35.695312-59.957031-49.140625-61.789062-49.699218l-12.859375-3.89453175-5.273438 12.34765575c-.761718 1.769532-18.28125 43.59375-1.640625 79.289063 11.910157 25.539063 37.285157 39.554687 51.53125 45.75.164063 4.875.289063 9.769531.683594 14.554687-25.355469-12.535156-50.582031-10.730468-81.515625-3.832031 5.054688 40.28125 16.160156 66.613281 39.335938 82.835938 16.933593 11.851562 37.148437 14.734375 52.820312 14.734375 5.300781 0 9.804688-.359375 13.761719-.785156 2.980469 6.308593 6.183593 12.394531 9.621093 18.257812-.277343-.003906-.53125-.082031-.808593-.082031-11.816407 0-40.039063.703125-80.125 45 27.230469 30.09375 51.839843 45 80.125 45 26.457031 0 48.648437-15.015625 60.925781-25.390625 7.1875 4.644531 14.671875 8.636718 22.414062 12.003906-18.585937 12.324219-33.332031 30.351562-41.09375 52.320312l28.300782 9.992188c10.5625-29.898438 38.980468-49.996094 70.722656-49.996094 31.746094 0 60.160156 20.097656 70.722656 49.996094l28.300782-9.992188c-7.765626-21.980468-22.519532-40.011718-41.117188-52.335937 7.734375-3.363281 15.210938-7.355469 22.386719-11.992187 12.273437 10.375 34.472656 25.394531 60.933593 25.394531 11.820313 0 40.039063-.71875 80.140626-45-27.25-30.09375-51.863282-45-80.140626-45-.285156 0-.539062.078125-.820312.082031 3.433594-5.863281 6.636719-11.949219 9.617188-18.257812 3.960937.425781 8.46875.789062 13.777343.789062 15.675781 0 36.890625-2.886719 53.808594-14.738281 9.679687-6.777344 30.957031-23.558594 38.394531-82.835938-54.5-12.15625-75.769531.953125-81.578125 3.824219zm0 0"/></svg>