<svg width="106" height="90" viewBox="0 0 106 90" fill="none" xmlns="http://www.w3.org/2000/svg">
<rect x="1" y="1" width="104" height="88" rx="2" fill="white" stroke="#B3B3B3" stroke-width="0.5"/>
<mask id="mask0" mask-type="alpha" maskUnits="userSpaceOnUse" x="0" y="0" width="106" height="90">
<rect x="1" y="1" width="104" height="88" rx="2" fill="white" stroke="#B3B3B3" stroke-width="0.5"/>
</mask>
<g mask="url(#mask0)">
<path d="M84 16C84 15.4477 84.4477 15 85 15H118C118.552 15 119 15.4477 119 16V64C119 64.5523 118.552 65 118 65H85C84.4477 65 84 64.5523 84 64V16Z" fill="#C4CED9"/>
<rect x="84" y="79" width="28" height="6" rx="3" fill="#A4B0BE"/>
<rect x="84" y="73" width="16" height="2" rx="1" fill="#C4CED9"/>
<rect x="84" y="69" width="29" height="2" rx="1" fill="#C4CED9"/>
<path fill-rule="evenodd" clip-rule="evenodd" d="M106.25 35H97.75C97.2859 35 96.8408 35.1844 96.5126 35.5126C96.1844 35.8408 96 36.2859 96 36.75V45.25C96 45.7141 96.1844 46.1592 96.5126 46.4874C96.8408 46.8156 97.2859 47 97.75 47H106.25C106.714 47 107.159 46.8156 107.487 46.4874C107.816 46.1592 108 45.7141 108 45.25V36.75C108 36.2859 107.816 35.8408 107.487 35.5126C107.159 35.1844 106.714 35 106.25 35ZM101.333 44.0065L103.466 41.259C103.49 41.2286 103.52 41.204 103.554 41.1872C103.589 41.1704 103.627 41.1619 103.665 41.1621C103.704 41.1624 103.742 41.1716 103.776 41.1889C103.811 41.2062 103.84 41.2312 103.863 41.262L106.366 44.6C106.394 44.6371 106.411 44.6813 106.415 44.7275C106.42 44.7738 106.411 44.8203 106.39 44.8618C106.369 44.9033 106.337 44.9383 106.298 44.9627C106.258 44.9871 106.213 45 106.167 45H97.845C97.7982 45 97.7523 44.9869 97.7126 44.9622C97.6728 44.9374 97.6409 44.902 97.6203 44.8599C97.5997 44.8179 97.5913 44.7709 97.5962 44.7243C97.601 44.6777 97.6188 44.6335 97.6475 44.5965L99.476 42.2455C99.499 42.2159 99.5283 42.1919 99.5618 42.1752C99.5953 42.1585 99.6321 42.1495 99.6696 42.1489C99.707 42.1484 99.7441 42.1562 99.7781 42.1719C99.8121 42.1875 99.8421 42.2107 99.866 42.2395L101.334 44.0065H101.333Z" fill="white"/>
<path d="M45 16C45 15.4477 45.4477 15 46 15H79C79.5523 15 80 15.4477 80 16V64C80 64.5523 79.5523 65 79 65H46C45.4477 65 45 64.5523 45 64V16Z" fill="#C4CED9"/>
<rect x="45" y="79" width="28" height="6" rx="3" fill="#A4B0BE"/>
<rect x="45" y="73" width="16" height="2" rx="1" fill="#C4CED9"/>
<rect x="45" y="69" width="29" height="2" rx="1" fill="#C4CED9"/>
<path fill-rule="evenodd" clip-rule="evenodd" d="M67.25 35H58.75C58.2859 35 57.8408 35.1844 57.5126 35.5126C57.1844 35.8408 57 36.2859 57 36.75V45.25C57 45.7141 57.1844 46.1592 57.5126 46.4874C57.8408 46.8156 58.2859 47 58.75 47H67.25C67.7141 47 68.1592 46.8156 68.4874 46.4874C68.8156 46.1592 69 45.7141 69 45.25V36.75C69 36.2859 68.8156 35.8408 68.4874 35.5126C68.1592 35.1844 67.7141 35 67.25 35ZM62.3335 44.0065L64.466 41.259C64.4896 41.2286 64.5198 41.204 64.5544 41.1872C64.589 41.1704 64.627 41.1619 64.6655 41.1621C64.704 41.1624 64.7418 41.1716 64.7762 41.1889C64.8105 41.2062 64.8404 41.2312 64.8635 41.262L67.3665 44.6C67.3944 44.6371 67.4113 44.6813 67.4155 44.7275C67.4197 44.7738 67.4109 44.8203 67.3901 44.8618C67.3693 44.9033 67.3374 44.9383 67.2979 44.9627C67.2584 44.9871 67.2129 45 67.1665 45H58.845C58.7982 45 58.7523 44.9869 58.7126 44.9622C58.6728 44.9374 58.6409 44.902 58.6203 44.8599C58.5997 44.8179 58.5913 44.7709 58.5962 44.7243C58.601 44.6777 58.6188 44.6335 58.6475 44.5965L60.476 42.2455C60.499 42.2159 60.5283 42.1919 60.5618 42.1752C60.5953 42.1585 60.6321 42.1495 60.6696 42.1489C60.707 42.1484 60.7441 42.1562 60.7781 42.1719C60.8121 42.1875 60.8421 42.2107 60.866 42.2395L62.334 44.0065H62.3335Z" fill="white"/>
<path d="M6 16C6 15.4477 6.44772 15 7 15H40C40.5523 15 41 15.4477 41 16V64C41 64.5523 40.5523 65 40 65H7C6.44772 65 6 64.5523 6 64V16Z" fill="#C4CED9"/>
<rect x="6" y="79" width="28" height="6" rx="3" fill="#A4B0BE"/>
<rect x="6" y="73" width="16" height="2" rx="1" fill="#C4CED9"/>
<rect x="6" y="69" width="29" height="2" rx="1" fill="#C4CED9"/>
<path fill-rule="evenodd" clip-rule="evenodd" d="M28.25 35H19.75C19.2859 35 18.8408 35.1844 18.5126 35.5126C18.1844 35.8408 18 36.2859 18 36.75V45.25C18 45.7141 18.1844 46.1592 18.5126 46.4874C18.8408 46.8156 19.2859 47 19.75 47H28.25C28.7141 47 29.1592 46.8156 29.4874 46.4874C29.8156 46.1592 30 45.7141 30 45.25V36.75C30 36.2859 29.8156 35.8408 29.4874 35.5126C29.1592 35.1844 28.7141 35 28.25 35ZM23.3335 44.0065L25.466 41.259C25.4896 41.2286 25.5198 41.204 25.5544 41.1872C25.589 41.1704 25.627 41.1619 25.6655 41.1621C25.704 41.1624 25.7418 41.1716 25.7762 41.1889C25.8105 41.2062 25.8404 41.2312 25.8635 41.262L28.3665 44.6C28.3944 44.6371 28.4113 44.6813 28.4155 44.7275C28.4197 44.7738 28.4109 44.8203 28.3901 44.8618C28.3693 44.9033 28.3374 44.9383 28.2979 44.9627C28.2584 44.9871 28.2129 45 28.1665 45H19.845C19.7982 45 19.7523 44.9869 19.7126 44.9622C19.6728 44.9374 19.6409 44.902 19.6203 44.8599C19.5997 44.8179 19.5913 44.7709 19.5962 44.7243C19.601 44.6777 19.6188 44.6335 19.6475 44.5965L21.476 42.2455C21.499 42.2159 21.5283 42.1919 21.5618 42.1752C21.5953 42.1585 21.6321 42.1495 21.6696 42.1489C21.707 42.1484 21.7441 42.1562 21.7781 42.1719C21.8121 42.1875 21.8421 42.2107 21.866 42.2395L23.334 44.0065H23.3335Z" fill="white"/>
<rect x="86" y="6" width="14" height="4" rx="2" fill="#A4B0BE"/>
<rect x="12" y="6" width="65" height="4" rx="2" fill="#C4CED9"/>
<rect x="6" y="6" width="4" height="4" rx="2" fill="#C4CED9"/>
</g>
</svg>
