<svg width="106" height="62" viewBox="0 0 106 62" fill="none" xmlns="http://www.w3.org/2000/svg">
<rect x="1" y="1" width="104" height="60" rx="2" fill="white" stroke="#B3B3B3" stroke-width="0.5"/>
<mask id="mask0" mask-type="alpha" maskUnits="userSpaceOnUse" x="0" y="0" width="106" height="62">
<rect x="1" y="1" width="104" height="60" rx="2" fill="white" stroke="#B3B3B3" stroke-width="0.5"/>
</mask>
<g mask="url(#mask0)">
<rect x="21" y="49" width="38" height="4" rx="2" fill="#A4B0BE"/>
<path d="M10.7147 45.8781C10.8045 45.6017 11.1955 45.6017 11.2853 45.8781L12.2797 48.9386C12.3199 49.0622 12.4351 49.1459 12.565 49.1459H15.783C16.0737 49.1459 16.1945 49.5178 15.9594 49.6886L13.356 51.5801C13.2508 51.6565 13.2068 51.7919 13.247 51.9155L14.2414 54.976C14.3312 55.2524 14.0149 55.4822 13.7797 55.3114L11.1763 53.4199C11.0712 53.3435 10.9288 53.3435 10.8237 53.4199L8.22026 55.3114C7.98514 55.4822 7.6688 55.2524 7.75861 54.976L8.75302 51.9155C8.79318 51.7919 8.74918 51.6565 8.64404 51.5801L6.04063 49.6886C5.80552 49.5178 5.92635 49.1459 6.21697 49.1459H9.43495C9.56492 49.1459 9.68011 49.0622 9.72027 48.9386L10.7147 45.8781Z" fill="#C4CED9"/>
<rect x="21" y="36" width="38" height="4" rx="2" fill="#A4B0BE"/>
<path d="M10.7147 32.8781C10.8045 32.6017 11.1955 32.6017 11.2853 32.8781L12.2797 35.9386C12.3199 36.0622 12.4351 36.1459 12.565 36.1459H15.783C16.0737 36.1459 16.1945 36.5178 15.9594 36.6886L13.356 38.5801C13.2508 38.6565 13.2068 38.7919 13.247 38.9155L14.2414 41.976C14.3312 42.2524 14.0149 42.4822 13.7797 42.3114L11.1763 40.4199C11.0712 40.3435 10.9288 40.3435 10.8237 40.4199L8.22026 42.3114C7.98514 42.4822 7.6688 42.2524 7.75861 41.976L8.75302 38.9155C8.79318 38.7919 8.74918 38.6565 8.64404 38.5801L6.04063 36.6886C5.80552 36.5178 5.92635 36.1459 6.21697 36.1459H9.43495C9.56492 36.1459 9.68011 36.0622 9.72027 35.9386L10.7147 32.8781Z" fill="#C4CED9"/>
<rect x="21" y="22" width="38" height="4" rx="2" fill="#A4B0BE"/>
<path d="M10.7147 18.8781C10.8045 18.6017 11.1955 18.6017 11.2853 18.8781L12.2797 21.9386C12.3199 22.0622 12.4351 22.1459 12.565 22.1459H15.783C16.0737 22.1459 16.1945 22.5178 15.9594 22.6886L13.356 24.5801C13.2508 24.6565 13.2068 24.7919 13.247 24.9155L14.2414 27.976C14.3312 28.2524 14.0149 28.4822 13.7797 28.3114L11.1763 26.4199C11.0712 26.3435 10.9288 26.3435 10.8237 26.4199L8.22026 28.3114C7.98514 28.4822 7.6688 28.2524 7.75861 27.976L8.75302 24.9155C8.79318 24.7919 8.74918 24.6565 8.64404 24.5801L6.04063 22.6886C5.80552 22.5178 5.92635 22.1459 6.21697 22.1459H9.43495C9.56492 22.1459 9.68011 22.0622 9.72027 21.9386L10.7147 18.8781Z" fill="#C4CED9"/>
<rect x="12" y="6" width="65" height="4" rx="2" fill="#C4CED9"/>
<rect x="86" y="6" width="14" height="4" rx="2" fill="#A4B0BE"/>
<rect x="6" y="6" width="4" height="4" rx="2" fill="#C4CED9"/>
</g>
</svg>
