<svg width="106" height="74" viewBox="0 0 106 74" fill="none" xmlns="http://www.w3.org/2000/svg">
<rect x="1" y="1" width="104" height="72" rx="2" fill="white" stroke="#B3B3B3" stroke-width="0.5"/>
<mask id="mask0" mask-type="alpha" maskUnits="userSpaceOnUse" x="0" y="0" width="106" height="74">
<rect x="1" y="1" width="104" height="72" rx="2" fill="white" stroke="#B3B3B3" stroke-width="0.5"/>
</mask>
<g mask="url(#mask0)">
<rect x="25" y="61" width="59" height="2" rx="1" fill="#C4CED9"/>
<rect x="25" y="57" width="73" height="2" rx="1" fill="#C4CED9"/>
<rect x="25" y="48" width="34" height="4" rx="2" fill="#C4CED9"/>
<rect x="25" y="35" width="59" height="2" rx="1" fill="#C4CED9"/>
<rect x="25" y="31" width="73" height="2" rx="1" fill="#C4CED9"/>
<rect x="25" y="22" width="34" height="4" rx="2" fill="#C4CED9"/>
<path d="M17.7146 48.2757H16.4584V47.579C16.4584 47.2592 16.1992 47 15.8794 47H15.7875C15.4678 47 15.2087 47.2592 15.2087 47.579V48.2757H10.7767V47.579C10.7767 47.2592 10.5175 47 10.1978 47H10.1059C9.78615 47 9.52705 47.2592 9.52705 47.579V48.2757H8.28554C7.62859 48.2757 7.09393 48.8102 7.09393 49.4673V57.8085C7.09393 58.4652 7.62859 59.0001 8.28554 59.0001H17.7147C18.3715 59.0001 18.9063 58.4653 18.9063 57.8085V49.4673C18.9062 48.8102 18.3714 48.2757 17.7146 48.2757ZM17.5591 57.653H8.441V51.16H17.5591V57.653Z" fill="#A4B0BE"/>
<path d="M17.7146 22.2757H16.4584V21.579C16.4584 21.2592 16.1992 21 15.8794 21H15.7875C15.4678 21 15.2087 21.2592 15.2087 21.579V22.2757H10.7767V21.579C10.7767 21.2592 10.5175 21 10.1978 21H10.1059C9.78615 21 9.52705 21.2592 9.52705 21.579V22.2757H8.28554C7.62859 22.2757 7.09393 22.8102 7.09393 23.4673V31.8085C7.09393 32.4652 7.62859 33.0001 8.28554 33.0001H17.7147C18.3715 33.0001 18.9063 32.4653 18.9063 31.8085V23.4673C18.9062 22.8102 18.3714 22.2757 17.7146 22.2757ZM17.5591 31.653H8.441V25.16H17.5591V31.653Z" fill="#A4B0BE"/>
<rect x="12" y="6" width="65" height="4" rx="2" fill="#C4CED9"/>
<rect x="86" y="6" width="14" height="4" rx="2" fill="#A4B0BE"/>
<rect x="6" y="6" width="4" height="4" rx="2" fill="#C4CED9"/>
</g>
</svg>
