<svg width="106" height="46" viewBox="0 0 106 46" fill="none" xmlns="http://www.w3.org/2000/svg">
<rect x="1" y="1" width="104" height="44" rx="2" fill="white" stroke="#B3B3B3" stroke-width="0.5"/>
<mask id="mask0" mask-type="alpha" maskUnits="userSpaceOnUse" x="0" y="0" width="106" height="46">
<rect x="1" y="1" width="104" height="44" rx="2" fill="white" stroke="#B3B3B3" stroke-width="0.5"/>
</mask>
<g mask="url(#mask0)">
<rect x="6" y="15" width="94" height="16" rx="1" fill="#C4CED9"/>
<rect x="6" y="39" width="16" height="2" rx="1" fill="#C4CED9"/>
<rect x="6" y="35" width="44" height="2" rx="1" fill="#C4CED9"/>
<rect x="70" y="34" width="30" height="6" rx="3" fill="#A4B0BE"/>
<path fill-rule="evenodd" clip-rule="evenodd" d="M57.25 17H48.75C48.2859 17 47.8408 17.1844 47.5126 17.5126C47.1844 17.8408 47 18.2859 47 18.75V27.25C47 27.7141 47.1844 28.1592 47.5126 28.4874C47.8408 28.8156 48.2859 29 48.75 29H57.25C57.7141 29 58.1592 28.8156 58.4874 28.4874C58.8156 28.1592 59 27.7141 59 27.25V18.75C59 18.2859 58.8156 17.8408 58.4874 17.5126C58.1592 17.1844 57.7141 17 57.25 17ZM52.3335 26.0065L54.466 23.259C54.4896 23.2286 54.5198 23.204 54.5544 23.1872C54.589 23.1704 54.627 23.1619 54.6655 23.1621C54.704 23.1624 54.7418 23.1716 54.7762 23.1889C54.8105 23.2062 54.8404 23.2312 54.8635 23.262L57.3665 26.6C57.3944 26.6371 57.4113 26.6813 57.4155 26.7275C57.4197 26.7738 57.4109 26.8203 57.3901 26.8618C57.3693 26.9033 57.3374 26.9383 57.2979 26.9627C57.2584 26.9871 57.2129 27 57.1665 27H48.845C48.7982 27 48.7523 26.9869 48.7126 26.9622C48.6728 26.9374 48.6409 26.902 48.6203 26.8599C48.5997 26.8179 48.5913 26.7709 48.5962 26.7243C48.601 26.6777 48.6188 26.6335 48.6475 26.5965L50.476 24.2455C50.499 24.2159 50.5283 24.1919 50.5618 24.1752C50.5953 24.1585 50.6321 24.1495 50.6696 24.1489C50.707 24.1484 50.7441 24.1562 50.7781 24.1719C50.8121 24.1875 50.8421 24.2107 50.866 24.2395L52.334 26.0065H52.3335Z" fill="white"/>
<rect x="12" y="6" width="65" height="4" rx="2" fill="#C4CED9"/>
<rect x="86" y="6" width="14" height="4" rx="2" fill="#A4B0BE"/>
<rect x="6" y="6" width="4" height="4" rx="2" fill="#C4CED9"/>
</g>
</svg>
