<svg width="106" height="77" viewBox="0 0 106 77" fill="none" xmlns="http://www.w3.org/2000/svg">
<rect x="1" y="1" width="104" height="75" rx="2" fill="white" stroke="#B3B3B3" stroke-width="0.5"/>
<mask id="mask0" mask-type="alpha" maskUnits="userSpaceOnUse" x="0" y="0" width="106" height="77">
<rect x="1" y="1" width="104" height="75" rx="2" fill="white" stroke="#B3B3B3" stroke-width="0.5"/>
</mask>
<g mask="url(#mask0)">
<path d="M84 16C84 15.4477 84.4477 15 85 15H118C118.552 15 119 15.4477 119 16V50H84V16Z" fill="#C4CED9"/>
<rect x="84" y="57" width="16" height="2" rx="1" fill="#C4CED9"/>
<rect x="84" y="53" width="29" height="2" rx="1" fill="#C4CED9"/>
<g clip-path="url(#clip0)">
<path d="M104.846 39.2309C104.846 39.6133 104.982 39.9395 105.252 40.2097C105.522 40.4802 105.849 40.6155 106.231 40.6155C106.613 40.6155 106.939 40.4802 107.21 40.2097C107.48 39.9395 107.615 39.6133 107.615 39.2309C107.615 38.8485 107.48 38.5223 107.21 38.2518C106.939 37.9816 106.613 37.8463 106.231 37.8463C105.849 37.8463 105.522 37.9816 105.252 38.2518C104.982 38.5223 104.846 38.8485 104.846 39.2309Z" fill="white"/>
<path d="M108.794 26.9746C108.657 26.8376 108.495 26.769 108.308 26.769H95.3161C95.3088 26.7186 95.2926 26.6267 95.2674 26.4933C95.2421 26.3598 95.2223 26.2535 95.2079 26.1741C95.1934 26.095 95.1665 25.9994 95.1268 25.8876C95.0871 25.7758 95.0402 25.6874 94.9862 25.6226C94.9322 25.5575 94.8601 25.5018 94.7699 25.4548C94.6798 25.408 94.577 25.3846 94.4616 25.3846H91.6924C91.5048 25.3846 91.3426 25.4532 91.2056 25.5901C91.0685 25.7271 91 25.8894 91 26.0769C91 26.2643 91.0685 26.4266 91.2056 26.5636C91.3427 26.7007 91.505 26.7691 91.6924 26.7691H93.8989L95.8135 35.6719C95.7992 35.7007 95.7252 35.8376 95.5918 36.0829C95.4584 36.3282 95.352 36.5427 95.2727 36.7265C95.1934 36.9106 95.1538 37.053 95.1538 37.1539C95.1538 37.3413 95.2223 37.5037 95.3593 37.6409C95.4965 37.7775 95.6587 37.8463 95.8462 37.8463H96.5385H106.231H106.923C107.11 37.8463 107.272 37.7776 107.409 37.6409C107.547 37.5037 107.615 37.3414 107.615 37.1539C107.615 36.9664 107.547 36.8041 107.409 36.6671C107.272 36.5302 107.11 36.4615 106.923 36.4615H96.971C97.1441 36.1153 97.2307 35.8847 97.2307 35.7693C97.2307 35.697 97.2217 35.6176 97.2036 35.5313C97.1855 35.4449 97.1639 35.3492 97.1387 35.2445C97.1134 35.1402 97.0973 35.0627 97.0901 35.0121L108.384 33.6925C108.564 33.6707 108.712 33.5934 108.827 33.4598C108.942 33.3266 109 33.1733 109 33.0001V27.4616C109 27.2741 108.932 27.1118 108.794 26.9746Z" fill="white"/>
<path d="M95.1537 39.2309C95.1537 39.6133 95.2889 39.9395 95.5594 40.2097C95.8299 40.4802 96.1561 40.6155 96.5384 40.6155C96.9205 40.6155 97.2469 40.4802 97.5173 40.2097C97.7877 39.9395 97.923 39.6133 97.923 39.2309C97.923 38.8485 97.7879 38.5223 97.5173 38.2518C97.2469 37.9816 96.9205 37.8463 96.5384 37.8463C96.1561 37.8463 95.8298 37.9816 95.5594 38.2518C95.289 38.5223 95.1537 38.8485 95.1537 39.2309Z" fill="white"/>
</g>
<rect x="84" y="64" width="28" height="6" rx="3" fill="#A4B0BE"/>
<path d="M45 16C45 15.4477 45.4477 15 46 15H79C79.5523 15 80 15.4477 80 16V50H45V16Z" fill="#C4CED9"/>
<rect x="45" y="57" width="16" height="2" rx="1" fill="#C4CED9"/>
<rect x="45" y="53" width="29" height="2" rx="1" fill="#C4CED9"/>
<g clip-path="url(#clip1)">
<path d="M65.846 39.2309C65.846 39.6133 65.9816 39.9395 66.2518 40.2097C66.522 40.4802 66.8485 40.6155 67.231 40.6155C67.613 40.6155 67.9395 40.4802 68.2097 40.2097C68.4802 39.9395 68.6155 39.6133 68.6155 39.2309C68.6155 38.8485 68.4803 38.5223 68.2097 38.2518C67.9395 37.9816 67.613 37.8463 67.231 37.8463C66.8485 37.8463 66.522 37.9816 66.2518 38.2518C65.9816 38.5223 65.846 38.8485 65.846 39.2309Z" fill="white"/>
<path d="M69.7944 26.9746C69.6573 26.8376 69.4951 26.769 69.3076 26.769H56.3161C56.3088 26.7186 56.2926 26.6267 56.2674 26.4933C56.2421 26.3598 56.2223 26.2535 56.2079 26.1741C56.1934 26.095 56.1665 25.9994 56.1268 25.8876C56.0871 25.7758 56.0402 25.6874 55.9862 25.6226C55.9322 25.5575 55.8601 25.5018 55.7699 25.4548C55.6798 25.408 55.577 25.3846 55.4616 25.3846H52.6924C52.5048 25.3846 52.3426 25.4532 52.2056 25.5901C52.0685 25.7271 52 25.8894 52 26.0769C52 26.2643 52.0685 26.4266 52.2056 26.5636C52.3427 26.7007 52.505 26.7691 52.6924 26.7691H54.8989L56.8135 35.6719C56.7992 35.7007 56.7252 35.8376 56.5918 36.0829C56.4584 36.3282 56.352 36.5427 56.2727 36.7265C56.1934 36.9106 56.1538 37.053 56.1538 37.1539C56.1538 37.3413 56.2223 37.5037 56.3593 37.6409C56.4965 37.7775 56.6587 37.8463 56.8462 37.8463H57.5385H67.2308H67.9226C68.1101 37.8463 68.2724 37.7776 68.4094 37.6409C68.5465 37.5037 68.615 37.3414 68.615 37.1539C68.615 36.9664 68.5465 36.8041 68.4094 36.6671C68.2725 36.5302 68.1101 36.4615 67.9226 36.4615H57.971C58.1441 36.1153 58.2307 35.8847 58.2307 35.7693C58.2307 35.697 58.2217 35.6176 58.2036 35.5313C58.1855 35.4449 58.1639 35.3492 58.1387 35.2445C58.1134 35.1402 58.0973 35.0627 58.0901 35.0121L69.3836 33.6925C69.5637 33.6707 69.7116 33.5934 69.827 33.4598C69.9424 33.3266 70 33.1733 70 33.0001V27.4616C69.9999 27.2741 69.9315 27.1118 69.7944 26.9746Z" fill="white"/>
<path d="M56.1537 39.2309C56.1537 39.6133 56.2889 39.9395 56.5594 40.2097C56.8299 40.4802 57.1561 40.6155 57.5384 40.6155C57.9205 40.6155 58.2469 40.4802 58.5173 40.2097C58.7877 39.9395 58.923 39.6133 58.923 39.2309C58.923 38.8485 58.7879 38.5223 58.5173 38.2518C58.2469 37.9816 57.9205 37.8463 57.5384 37.8463C57.1561 37.8463 56.8298 37.9816 56.5594 38.2518C56.289 38.5223 56.1537 38.8485 56.1537 39.2309Z" fill="white"/>
</g>
<rect x="45" y="64" width="28" height="6" rx="3" fill="#A4B0BE"/>
<path d="M6 16C6 15.4477 6.44772 15 7 15H40C40.5523 15 41 15.4477 41 16V50H6V16Z" fill="#C4CED9"/>
<rect x="6" y="57" width="16" height="2" rx="1" fill="#C4CED9"/>
<rect x="6" y="53" width="29" height="2" rx="1" fill="#C4CED9"/>
<g clip-path="url(#clip2)">
<path d="M26.846 39.2309C26.846 39.6133 26.9816 39.9395 27.2518 40.2097C27.522 40.4802 27.8485 40.6155 28.231 40.6155C28.613 40.6155 28.9395 40.4802 29.2097 40.2097C29.4802 39.9395 29.6155 39.6133 29.6155 39.2309C29.6155 38.8485 29.4803 38.5223 29.2097 38.2518C28.9395 37.9816 28.613 37.8463 28.231 37.8463C27.8485 37.8463 27.522 37.9816 27.2518 38.2518C26.9816 38.5223 26.846 38.8485 26.846 39.2309Z" fill="white"/>
<path d="M30.7944 26.9746C30.6573 26.8376 30.4951 26.769 30.3076 26.769H17.3161C17.3088 26.7186 17.2926 26.6267 17.2674 26.4933C17.2421 26.3598 17.2223 26.2535 17.2079 26.1741C17.1934 26.095 17.1665 25.9994 17.1268 25.8876C17.0871 25.7758 17.0402 25.6874 16.9862 25.6226C16.9322 25.5575 16.8601 25.5018 16.7699 25.4548C16.6798 25.408 16.577 25.3846 16.4616 25.3846H13.6924C13.5048 25.3846 13.3426 25.4532 13.2056 25.5901C13.0685 25.7271 13 25.8894 13 26.0769C13 26.2643 13.0685 26.4266 13.2056 26.5636C13.3427 26.7007 13.505 26.7691 13.6924 26.7691H15.8989L17.8135 35.6719C17.7992 35.7007 17.7252 35.8376 17.5918 36.0829C17.4584 36.3282 17.352 36.5427 17.2727 36.7265C17.1934 36.9106 17.1538 37.053 17.1538 37.1539C17.1538 37.3413 17.2223 37.5037 17.3593 37.6409C17.4965 37.7775 17.6587 37.8463 17.8462 37.8463H18.5385H28.2308H28.9226C29.1101 37.8463 29.2724 37.7776 29.4094 37.6409C29.5465 37.5037 29.615 37.3414 29.615 37.1539C29.615 36.9664 29.5465 36.8041 29.4094 36.6671C29.2725 36.5302 29.1101 36.4615 28.9226 36.4615H18.971C19.1441 36.1153 19.2307 35.8847 19.2307 35.7693C19.2307 35.697 19.2217 35.6176 19.2036 35.5313C19.1855 35.4449 19.1639 35.3492 19.1387 35.2445C19.1134 35.1402 19.0973 35.0627 19.0901 35.0121L30.3836 33.6925C30.5637 33.6707 30.7116 33.5934 30.827 33.4598C30.9424 33.3266 31 33.1733 31 33.0001V27.4616C30.9999 27.2741 30.9315 27.1118 30.7944 26.9746Z" fill="white"/>
<path d="M17.1537 39.2309C17.1537 39.6133 17.2889 39.9395 17.5594 40.2097C17.8299 40.4802 18.1561 40.6155 18.5384 40.6155C18.9205 40.6155 19.2469 40.4802 19.5173 40.2097C19.7877 39.9395 19.923 39.6133 19.923 39.2309C19.923 38.8485 19.7879 38.5223 19.5173 38.2518C19.2469 37.9816 18.9205 37.8463 18.5384 37.8463C18.1561 37.8463 17.8298 37.9816 17.5594 38.2518C17.289 38.5223 17.1537 38.8485 17.1537 39.2309Z" fill="white"/>
</g>
<rect x="6" y="64" width="28" height="6" rx="3" fill="#A4B0BE"/>
<rect x="86" y="6" width="14" height="4" rx="2" fill="#A4B0BE"/>
<rect x="12" y="6" width="65" height="4" rx="2" fill="#C4CED9"/>
<rect x="6" y="6" width="4" height="4" rx="2" fill="#C4CED9"/>
</g>
<defs>
<clipPath id="clip0">
<rect width="18" height="18" fill="white" transform="translate(91 24)"/>
</clipPath>
<clipPath id="clip1">
<rect width="18" height="18" fill="white" transform="translate(52 24)"/>
</clipPath>
<clipPath id="clip2">
<rect width="18" height="18" fill="white" transform="translate(13 24)"/>
</clipPath>
</defs>
</svg>
