<svg width="106" height="77" viewBox="0 0 106 77" fill="none" xmlns="http://www.w3.org/2000/svg">
<rect x="1" y="1" width="104" height="75" rx="2" fill="white" stroke="#B3B3B3" stroke-width="0.5"/>
<mask id="mask0" mask-type="alpha" maskUnits="userSpaceOnUse" x="0" y="0" width="106" height="77">
<rect x="1" y="1" width="104" height="75" rx="2" fill="white" stroke="#B3B3B3" stroke-width="0.5"/>
</mask>
<g mask="url(#mask0)">
<path d="M6 16C6 15.4477 6.44772 15 7 15H40C40.5523 15 41 15.4477 41 16V50H6V16Z" fill="#C4CED9"/>
<path d="M14 34.5882C14 34.0035 14.4726 33.5294 15.0556 33.5294H21.3889C21.9719 33.5294 22.4444 34.0035 22.4444 34.5882V40.9412C22.4444 41.5259 21.9719 42 21.3889 42H15.0556C14.4726 42 14 41.5259 14 40.9412V34.5882Z" fill="white"/>
<path d="M23.1136 24.5294C23.5199 23.8235 24.5356 23.8235 24.9419 24.5294L28.1414 30.0882C28.5477 30.7941 28.0398 31.6765 27.2273 31.6765H20.8283C20.0157 31.6765 19.5079 30.7941 19.9142 30.0882L23.1136 24.5294Z" fill="white"/>
<path d="M33 37.7647C33 40.1038 31.1096 42 28.7778 42C26.4459 42 24.5556 40.1038 24.5556 37.7647C24.5556 35.4256 26.4459 33.5294 28.7778 33.5294C31.1096 33.5294 33 35.4256 33 37.7647Z" fill="white"/>
<rect x="6" y="57" width="16" height="2" rx="1" fill="#C4CED9"/>
<rect x="6" y="53" width="29" height="2" rx="1" fill="#C4CED9"/>
<rect x="6" y="64" width="28" height="6" rx="3" fill="#A4B0BE"/>
<path d="M45 16C45 15.4477 45.4477 15 46 15H79C79.5523 15 80 15.4477 80 16V50H45V16Z" fill="#C4CED9"/>
<path d="M53 34.5882C53 34.0035 53.4726 33.5294 54.0556 33.5294H60.3889C60.9719 33.5294 61.4444 34.0035 61.4444 34.5882V40.9412C61.4444 41.5259 60.9719 42 60.3889 42H54.0556C53.4726 42 53 41.5259 53 40.9412V34.5882Z" fill="white"/>
<path d="M62.1136 24.5294C62.5199 23.8235 63.5356 23.8235 63.9419 24.5294L67.1414 30.0882C67.5477 30.7941 67.0398 31.6765 66.2273 31.6765H59.8283C59.0157 31.6765 58.5079 30.7941 58.9142 30.0882L62.1136 24.5294Z" fill="white"/>
<path d="M72 37.7647C72 40.1038 70.1096 42 67.7778 42C65.4459 42 63.5556 40.1038 63.5556 37.7647C63.5556 35.4256 65.4459 33.5294 67.7778 33.5294C70.1096 33.5294 72 35.4256 72 37.7647Z" fill="white"/>
<rect x="45" y="57" width="16" height="2" rx="1" fill="#C4CED9"/>
<rect x="45" y="53" width="29" height="2" rx="1" fill="#C4CED9"/>
<rect x="45" y="64" width="28" height="6" rx="3" fill="#A4B0BE"/>
<path d="M84 16C84 15.4477 84.4477 15 85 15H118C118.552 15 119 15.4477 119 16V50H84V16Z" fill="#C4CED9"/>
<path d="M92 34.5882C92 34.0035 92.4726 33.5294 93.0556 33.5294H99.3889C99.9719 33.5294 100.444 34.0035 100.444 34.5882V40.9412C100.444 41.5259 99.9719 42 99.3889 42H93.0556C92.4726 42 92 41.5259 92 40.9412V34.5882Z" fill="white"/>
<path d="M101.114 24.5294C101.52 23.8235 102.536 23.8235 102.942 24.5294L106.141 30.0882C106.548 30.7941 106.04 31.6765 105.227 31.6765H98.8283C98.0157 31.6765 97.5079 30.7941 97.9142 30.0882L101.114 24.5294Z" fill="white"/>
<path d="M111 37.7647C111 40.1038 109.11 42 106.778 42C104.446 42 102.556 40.1038 102.556 37.7647C102.556 35.4256 104.446 33.5294 106.778 33.5294C109.11 33.5294 111 35.4256 111 37.7647Z" fill="white"/>
<rect x="84" y="57" width="16" height="2" rx="1" fill="#C4CED9"/>
<rect x="84" y="53" width="29" height="2" rx="1" fill="#C4CED9"/>
<rect x="84" y="64" width="28" height="6" rx="3" fill="#A4B0BE"/>
<rect x="86" y="6" width="14" height="4" rx="2" fill="#A4B0BE"/>
<rect x="12" y="6" width="65" height="4" rx="2" fill="#C4CED9"/>
<rect x="6" y="6" width="4" height="4" rx="2" fill="#C4CED9"/>
</g>
</svg>
