<svg width="106" height="74" viewBox="0 0 106 74" fill="none" xmlns="http://www.w3.org/2000/svg">
<rect x="1" y="1" width="104" height="72" rx="2" fill="white" stroke="#B3B3B3" stroke-width="0.5"/>
<mask id="mask0" mask-type="alpha" maskUnits="userSpaceOnUse" x="0" y="0" width="106" height="74">
<rect x="1" y="1" width="104" height="72" rx="2" fill="white" stroke="#B3B3B3" stroke-width="0.5"/>
</mask>
<g mask="url(#mask0)">
<rect x="25" y="61" width="59" height="2" rx="1" fill="#C4CED9"/>
<rect x="25" y="57" width="73" height="2" rx="1" fill="#C4CED9"/>
<rect x="25" y="48" width="34" height="4" rx="2" fill="#C4CED9"/>
<path fill-rule="evenodd" clip-rule="evenodd" d="M9.875 51.9063C9.875 53.0656 10.6963 54.7525 12.3394 56.9681C12.3978 57.0469 12.4739 57.1108 12.5614 57.1549C12.649 57.1989 12.7457 57.2219 12.8438 57.2219C12.9418 57.2219 13.0385 57.1989 13.1261 57.1549C13.2136 57.1108 13.2897 57.0469 13.3481 56.9681C14.9913 54.7525 15.8125 53.0656 15.8125 51.9063C15.8127 51.5163 15.7361 51.1302 15.587 50.7699C15.4379 50.4096 15.2192 50.0822 14.9435 49.8065C14.6678 49.5308 14.3404 49.3121 13.9801 49.163C13.6198 49.0139 13.2337 48.9373 12.8438 48.9375C12.4538 48.9373 12.0677 49.0139 11.7074 49.163C11.3471 49.3121 11.0197 49.5308 10.744 49.8065C10.4683 50.0822 10.2496 50.4096 10.1005 50.7699C9.95137 51.1302 9.87475 51.5163 9.875 51.9063ZM11.75 51.9063C11.7501 51.6161 11.8654 51.3378 12.0707 51.1327C12.2759 50.9276 12.5542 50.8124 12.8444 50.8125C13.1345 50.8126 13.4128 50.9279 13.6179 51.1332C13.823 51.3384 13.9382 51.6167 13.9381 51.9069C13.9381 52.0505 13.9097 52.1928 13.8547 52.3255C13.7997 52.4583 13.7191 52.5788 13.6175 52.6804C13.5158 52.782 13.3952 52.8625 13.2625 52.9175C13.1297 52.9724 12.9874 53.0007 12.8438 53.0006C12.7001 53.0006 12.5578 52.9722 12.4251 52.9172C12.2924 52.8622 12.1718 52.7816 12.0702 52.68C11.8651 52.4747 11.7499 52.1964 11.75 51.9063Z" fill="white"/>
<path fill-rule="evenodd" clip-rule="evenodd" d="M8 51.3214C8 53.274 9.38316 56.1151 12.1505 59.8467C12.2489 59.9793 12.377 60.087 12.5245 60.1612C12.672 60.2354 12.8349 60.2741 13 60.2741C13.1651 60.2741 13.328 60.2354 13.4755 60.1612C13.623 60.087 13.7511 59.9793 13.8495 59.8467C16.6168 56.1151 18 53.274 18 51.3214C18.0004 50.6647 17.8714 50.0143 17.6202 49.4075C17.3691 48.8007 17.0008 48.2493 16.5365 47.785C16.0721 47.3206 15.5207 46.9523 14.9139 46.7012C14.3071 46.45 13.6567 46.321 13 46.3214C12.3433 46.321 11.6929 46.45 11.0861 46.7012C10.4793 46.9523 9.92792 47.3206 9.46354 47.785C8.99917 48.2493 8.63088 48.8007 8.37976 49.4075C8.12863 50.0143 7.99959 50.6647 8 51.3214ZM11.1579 51.3214C11.158 50.8327 11.3523 50.3641 11.698 50.0186C12.0436 49.6732 12.5124 49.4792 13.0011 49.4793C13.4897 49.4794 13.9584 49.6737 14.3038 50.0194C14.6493 50.365 14.8433 50.8338 14.8432 51.3225C14.8431 51.5644 14.7954 51.804 14.7027 52.0276C14.61 52.2511 14.4742 52.4542 14.3031 52.6252C14.1319 52.7963 13.9288 52.932 13.7052 53.0245C13.4816 53.117 13.242 53.1646 13 53.1646C12.758 53.1645 12.5184 53.1168 12.2949 53.0241C12.0714 52.9314 11.8683 52.7957 11.6972 52.6245C11.3518 52.2788 11.1578 51.8101 11.1579 51.3214Z" fill="#A4B0BE"/>
<rect x="25" y="35" width="59" height="2" rx="1" fill="#C4CED9"/>
<rect x="25" y="31" width="73" height="2" rx="1" fill="#C4CED9"/>
<rect x="25" y="22" width="34" height="4" rx="2" fill="#C4CED9"/>
<path fill-rule="evenodd" clip-rule="evenodd" d="M8 25.3214C8 27.274 9.38316 30.1151 12.1505 33.8467C12.2489 33.9793 12.377 34.087 12.5245 34.1612C12.672 34.2354 12.8349 34.2741 13 34.2741C13.1651 34.2741 13.328 34.2354 13.4755 34.1612C13.623 34.087 13.7511 33.9793 13.8495 33.8467C16.6168 30.1151 18 27.274 18 25.3214C18.0004 24.6647 17.8714 24.0143 17.6202 23.4075C17.3691 22.8007 17.0008 22.2493 16.5365 21.785C16.0721 21.3206 15.5207 20.9523 14.9139 20.7012C14.3071 20.45 13.6567 20.321 13 20.3214C12.3433 20.321 11.6929 20.45 11.0861 20.7012C10.4793 20.9523 9.92792 21.3206 9.46354 21.785C8.99917 22.2493 8.63088 22.8007 8.37976 23.4075C8.12863 24.0143 7.99959 24.6647 8 25.3214ZM11.1579 25.3214C11.158 24.8327 11.3523 24.3641 11.698 24.0186C12.0436 23.6732 12.5124 23.4792 13.0011 23.4793C13.4897 23.4794 13.9584 23.6737 14.3038 24.0194C14.6493 24.365 14.8433 24.8338 14.8432 25.3225C14.8431 25.5644 14.7954 25.804 14.7027 26.0276C14.61 26.2511 14.4742 26.4542 14.3031 26.6252C14.1319 26.7963 13.9288 26.932 13.7052 27.0245C13.4816 27.117 13.242 27.1646 13 27.1646C12.758 27.1645 12.5184 27.1168 12.2949 27.0241C12.0714 26.9314 11.8683 26.7957 11.6972 26.6245C11.3518 26.2788 11.1578 25.8101 11.1579 25.3214Z" fill="#A4B0BE"/>
<rect x="12" y="6" width="65" height="4" rx="2" fill="#C4CED9"/>
<rect x="86" y="6" width="14" height="4" rx="2" fill="#A4B0BE"/>
<rect x="6" y="6" width="4" height="4" rx="2" fill="#C4CED9"/>
</g>
</svg>
