<svg width="106" height="62" viewBox="0 0 106 62" fill="none" xmlns="http://www.w3.org/2000/svg">
<rect x="1" y="1" width="104" height="60" rx="2" fill="white" stroke="#B3B3B3" stroke-width="0.5"/>
<mask id="mask0" mask-type="alpha" maskUnits="userSpaceOnUse" x="0" y="0" width="106" height="62">
<rect x="1" y="1" width="104" height="60" rx="2" fill="white" stroke="#B3B3B3" stroke-width="0.5"/>
</mask>
<g mask="url(#mask0)">
<rect x="21" y="49" width="79" height="4" rx="2" fill="#C4CED9"/>
<rect x="21" y="36" width="79" height="4" rx="2" fill="#C4CED9"/>
<rect x="21" y="22" width="79" height="4" rx="2" fill="#C4CED9"/>
<path d="M7.05578 49.8428C7.19493 49.941 7.61438 50.2326 8.31414 50.7175C9.01392 51.2024 9.55001 51.5758 9.92241 51.8376C9.96332 51.8663 10.0502 51.9287 10.1832 52.0249C10.3162 52.1211 10.4267 52.1989 10.5147 52.2582C10.6027 52.3175 10.7091 52.384 10.8339 52.4577C10.9588 52.5312 11.0764 52.5866 11.1869 52.6232C11.2974 52.6602 11.3997 52.6785 11.4938 52.6785H11.5H11.5062C11.6003 52.6785 11.7026 52.6601 11.8131 52.6232C11.9236 52.5866 12.0414 52.5312 12.1661 52.4577C12.2909 52.3839 12.3973 52.3175 12.4853 52.2582C12.5733 52.1989 12.6837 52.1211 12.8167 52.0249C12.9497 51.9286 13.0367 51.8663 13.0776 51.8376C13.4541 51.5758 14.4117 50.9108 15.9504 49.8426C16.2491 49.634 16.4987 49.3823 16.6991 49.0876C16.8998 48.7931 17 48.4841 17 48.1609C17 47.8908 16.9028 47.6595 16.7084 47.4672C16.514 47.2748 16.2837 47.1787 16.0178 47.1787H6.9821C6.66702 47.1787 6.42454 47.2851 6.25471 47.4979C6.0849 47.7107 6 47.9767 6 48.2958C6 48.5536 6.11257 48.833 6.33762 49.1338C6.56264 49.4346 6.8021 49.6709 7.05578 49.8428Z" fill="#A4B0BE"/>
<path d="M16.3861 50.4995C15.044 51.4079 14.0249 52.1138 13.3293 52.6173C13.096 52.7891 12.9068 52.9232 12.7615 53.0193C12.6162 53.1155 12.4229 53.2137 12.1814 53.3139C11.94 53.4142 11.715 53.4643 11.5063 53.4643H11.5H11.4939C11.2851 53.4643 11.06 53.4142 10.8186 53.3139C10.5772 53.2137 10.3838 53.1155 10.2386 53.0193C10.0933 52.9232 9.90405 52.7891 9.67082 52.6173C9.11833 52.2121 8.10142 51.5061 6.62004 50.4995C6.38672 50.3441 6.18006 50.1659 6 49.9655V54.8392C6 55.1095 6.09613 55.3406 6.28849 55.5329C6.48081 55.7253 6.71206 55.8215 6.98217 55.8215H16.0179C16.288 55.8215 16.5192 55.7253 16.7115 55.5329C16.9039 55.3405 17 55.1095 17 54.8392V49.9655C16.824 50.1618 16.6195 50.3399 16.3861 50.4995Z" fill="#A4B0BE"/>
<path d="M7.05578 35.8428C7.19493 35.941 7.61438 36.2326 8.31414 36.7175C9.01392 37.2024 9.55001 37.5758 9.92241 37.8376C9.96332 37.8663 10.0502 37.9287 10.1832 38.0249C10.3162 38.1211 10.4267 38.1989 10.5147 38.2582C10.6027 38.3175 10.7091 38.384 10.8339 38.4577C10.9588 38.5312 11.0764 38.5866 11.1869 38.6232C11.2974 38.6602 11.3997 38.6785 11.4938 38.6785H11.5H11.5062C11.6003 38.6785 11.7026 38.6601 11.8131 38.6232C11.9236 38.5866 12.0414 38.5312 12.1661 38.4577C12.2909 38.3839 12.3973 38.3175 12.4853 38.2582C12.5733 38.1989 12.6837 38.1211 12.8167 38.0249C12.9497 37.9286 13.0367 37.8663 13.0776 37.8376C13.4541 37.5758 14.4117 36.9108 15.9504 35.8426C16.2491 35.634 16.4987 35.3823 16.6991 35.0876C16.8998 34.7931 17 34.4841 17 34.1609C17 33.8908 16.9028 33.6595 16.7084 33.4672C16.514 33.2748 16.2837 33.1787 16.0178 33.1787H6.9821C6.66702 33.1787 6.42454 33.2851 6.25471 33.4979C6.0849 33.7107 6 33.9767 6 34.2958C6 34.5536 6.11257 34.833 6.33762 35.1338C6.56264 35.4346 6.8021 35.6709 7.05578 35.8428Z" fill="#A4B0BE"/>
<path d="M16.3861 36.4995C15.044 37.4079 14.0249 38.1138 13.3293 38.6173C13.096 38.7891 12.9068 38.9232 12.7615 39.0193C12.6162 39.1155 12.4229 39.2137 12.1814 39.3139C11.94 39.4142 11.715 39.4643 11.5063 39.4643H11.5H11.4939C11.2851 39.4643 11.06 39.4142 10.8186 39.3139C10.5772 39.2137 10.3838 39.1155 10.2386 39.0193C10.0933 38.9232 9.90405 38.7891 9.67082 38.6173C9.11833 38.2121 8.10142 37.5061 6.62004 36.4995C6.38672 36.3441 6.18006 36.1659 6 35.9655V40.8392C6 41.1095 6.09613 41.3406 6.28849 41.5329C6.48081 41.7253 6.71206 41.8215 6.98217 41.8215H16.0179C16.288 41.8215 16.5192 41.7253 16.7115 41.5329C16.9039 41.3405 17 41.1095 17 40.8392V35.9655C16.824 36.1618 16.6195 36.3399 16.3861 36.4995Z" fill="#A4B0BE"/>
<path d="M7.05578 21.8428C7.19493 21.941 7.61438 22.2326 8.31414 22.7175C9.01392 23.2024 9.55001 23.5758 9.92241 23.8376C9.96332 23.8663 10.0502 23.9287 10.1832 24.0249C10.3162 24.1211 10.4267 24.1989 10.5147 24.2582C10.6027 24.3175 10.7091 24.384 10.8339 24.4577C10.9588 24.5312 11.0764 24.5866 11.1869 24.6232C11.2974 24.6602 11.3997 24.6785 11.4938 24.6785H11.5H11.5062C11.6003 24.6785 11.7026 24.6601 11.8131 24.6232C11.9236 24.5866 12.0414 24.5312 12.1661 24.4577C12.2909 24.3839 12.3973 24.3175 12.4853 24.2582C12.5733 24.1989 12.6837 24.1211 12.8167 24.0249C12.9497 23.9286 13.0367 23.8663 13.0776 23.8376C13.4541 23.5758 14.4117 22.9108 15.9504 21.8426C16.2491 21.634 16.4987 21.3823 16.6991 21.0876C16.8998 20.7931 17 20.4841 17 20.1609C17 19.8908 16.9028 19.6595 16.7084 19.4672C16.514 19.2748 16.2837 19.1787 16.0178 19.1787H6.9821C6.66702 19.1787 6.42454 19.2851 6.25471 19.4979C6.0849 19.7107 6 19.9767 6 20.2958C6 20.5536 6.11257 20.833 6.33762 21.1338C6.56264 21.4346 6.8021 21.6709 7.05578 21.8428Z" fill="#A4B0BE"/>
<path d="M16.3861 22.4995C15.044 23.4079 14.0249 24.1138 13.3293 24.6173C13.096 24.7891 12.9068 24.9232 12.7615 25.0193C12.6162 25.1155 12.4229 25.2137 12.1814 25.3139C11.94 25.4142 11.715 25.4643 11.5063 25.4643H11.5H11.4939C11.2851 25.4643 11.06 25.4142 10.8186 25.3139C10.5772 25.2137 10.3838 25.1155 10.2386 25.0193C10.0933 24.9232 9.90405 24.7891 9.67082 24.6173C9.11833 24.2121 8.10142 23.5061 6.62004 22.4995C6.38672 22.3441 6.18006 22.1659 6 21.9655V26.8392C6 27.1095 6.09613 27.3406 6.28849 27.5329C6.48081 27.7253 6.71206 27.8215 6.98217 27.8215H16.0179C16.288 27.8215 16.5192 27.7253 16.7115 27.5329C16.9039 27.3405 17 27.1095 17 26.8392V21.9655C16.824 22.1618 16.6195 22.3399 16.3861 22.4995Z" fill="#A4B0BE"/>
<rect x="12" y="6" width="65" height="4" rx="2" fill="#C4CED9"/>
<rect x="86" y="6" width="14" height="4" rx="2" fill="#A4B0BE"/>
<rect x="6" y="6" width="4" height="4" rx="2" fill="#C4CED9"/>
</g>
</svg>
